HIERARCHY
ROOT Hips
{
  OFFSET 6.041 24.773 -250.443
  CHANNELS 6 Xposition Yposition Zposition Zrotation Xrotation Yrotation
  JOINT LeftUpLeg
  {
    OFFSET 5.973 -5.986 1.700
    CHANNELS 6 Xposition Yposition Zposition Zrotation Xrotation Yrotation
    JOINT LeftLeg
    {
      OFFSET -0.000 -49.199 0.000
      CHANNELS 6 Xposition Yposition Zposition Zrotation Xrotation Yrotation
      JOINT LeftFoot
      {
        OFFSET 0.000 -41.231 -0.000
        CHANNELS 6 Xposition Yposition Zposition Zrotation Xrotation Yrotation
        End Site
        {
          OFFSET 0.000 -7.214 4.165
        }
      }
    }
  }
  JOINT RightUpLeg
  {
    OFFSET -5.933 -5.731 1.125
    CHANNELS 6 Xposition Yposition Zposition Zrotation Xrotation Yrotation
    JOINT RightLeg
    {
      OFFSET 0.000 -49.226 0.000
      CHANNELS 6 Xposition Yposition Zposition Zrotation Xrotation Yrotation
      JOINT RightFoot
      {
        OFFSET 0.000 -40.775 -0.000
        CHANNELS 6 Xposition Yposition Zposition Zrotation Xrotation Yrotation
        End Site
        {
          OFFSET 0.000 -7.501 4.331
        }
      }
    }
  }
  JOINT Spine
  {
    OFFSET 0.000 6.389 -6.389
    CHANNELS 6 Xposition Yposition Zposition Zrotation Xrotation Yrotation
    JOINT LeftShoulder
    {
      OFFSET -0.000 33.961 0.000
      CHANNELS 6 Xposition Yposition Zposition Zrotation Xrotation Yrotation
      JOINT LeftArm
      {
        OFFSET 15.130 0.000 -0.000
        CHANNELS 6 Xposition Yposition Zposition Zrotation Xrotation Yrotation
        JOINT LeftForeArm
        {
          OFFSET 23.241 0.000 0.000
          CHANNELS 6 Xposition Yposition Zposition Zrotation Xrotation Yrotation
          JOINT LeftHand
          {
            OFFSET 24.556 0.000 -0.000
            CHANNELS 6 Xposition Yposition Zposition Zrotation Xrotation Yrotation
            JOINT LeftHandThumb1
            {
            OFFSET 4.970 -0.620 3.390
            CHANNELS 6 Xposition Yposition Zposition Zrotation Xrotation Yrotation
              JOINT LeftHandThumb2
              {
              OFFSET 2.150 -0.000 0.000
              CHANNELS 6 Xposition Yposition Zposition Zrotation Xrotation Yrotation
                JOINT LeftHandThumb3
                {
                OFFSET 2.200 -0.000 0.000
                CHANNELS 6 Xposition Yposition Zposition Zrotation Xrotation Yrotation
                  JOINT LeftHandThumb4
                  {
                  OFFSET 1.700 -0.000 0.000
                  CHANNELS 6 Xposition Yposition Zposition Zrotation Xrotation Yrotation
                  }
                }
              }
            }
            JOINT LeftHandIndex1
            {
            OFFSET 8.730 0.680 2.070
            CHANNELS 6 Xposition Yposition Zposition Zrotation Xrotation Yrotation
              JOINT LeftHandIndex2
              {
              OFFSET 2.670 -0.000 0.000
              CHANNELS 6 Xposition Yposition Zposition Zrotation Xrotation Yrotation
                JOINT LeftHandIndex3
                {
                OFFSET 2.130 -0.000 0.000
                CHANNELS 6 Xposition Yposition Zposition Zrotation Xrotation Yrotation
                  JOINT LeftHandIndex4
                  {
                  OFFSET 1.800 -0.000 0.000
                  CHANNELS 6 Xposition Yposition Zposition Zrotation Xrotation Yrotation
                  }
                }
              }
            }
            JOINT LeftHandMiddle1
            {
            OFFSET 9.220 0.670 0.550
            CHANNELS 6 Xposition Yposition Zposition Zrotation Xrotation Yrotation
              JOINT LeftHandMiddle2
              {
              OFFSET 2.660 -0.000 0.000
              CHANNELS 6 Xposition Yposition Zposition Zrotation Xrotation Yrotation
                JOINT LeftHandMiddle3
                {
                OFFSET 2.280 -0.000 0.000
                CHANNELS 6 Xposition Yposition Zposition Zrotation Xrotation Yrotation
                  JOINT LeftHandMiddle4
                  {
                  OFFSET 1.500 -0.000 0.000
                  CHANNELS 6 Xposition Yposition Zposition Zrotation Xrotation Yrotation
                  }
                }
              }
            }
            JOINT LeftHandRing1
            {
            OFFSET 9.250 0.670 -1.130
            CHANNELS 6 Xposition Yposition Zposition Zrotation Xrotation Yrotation
              JOINT LeftHandRing2
              {
              OFFSET 2.470 -0.000 0.000
              CHANNELS 6 Xposition Yposition Zposition Zrotation Xrotation Yrotation
                JOINT LeftHandRing3
                {
                OFFSET 2.210 -0.000 0.000
                CHANNELS 6 Xposition Yposition Zposition Zrotation Xrotation Yrotation
                  JOINT LeftHandRing4
                  {
                  OFFSET 1.800 -0.000 0.000
                  CHANNELS 6 Xposition Yposition Zposition Zrotation Xrotation Yrotation
                  }
                }
              }
            }
            JOINT LeftHandPinky1
            {
            OFFSET 9.350 0.660 -2.720
            CHANNELS 6 Xposition Yposition Zposition Zrotation Xrotation Yrotation
              JOINT LeftHandPinky2
              {
              OFFSET 1.630 -0.000 0.000
              CHANNELS 6 Xposition Yposition Zposition Zrotation Xrotation Yrotation
                JOINT LeftHandPinky3
                {
                OFFSET 1.710 -0.000 0.000
                CHANNELS 6 Xposition Yposition Zposition Zrotation Xrotation Yrotation
                  JOINT LeftHandPinky4
                  {
                  OFFSET 1.800 -0.000 0.000
                  CHANNELS 6 Xposition Yposition Zposition Zrotation Xrotation Yrotation
                  }
                }
              }
            }
          }
        }
      }
    }
    JOINT RightShoulder
    {
      OFFSET -0.000 33.961 0.000
      CHANNELS 6 Xposition Yposition Zposition Zrotation Xrotation Yrotation
      JOINT RightArm
      {
        OFFSET -14.319 0.000 -0.000
        CHANNELS 6 Xposition Yposition Zposition Zrotation Xrotation Yrotation
        JOINT RightForeArm
        {
          OFFSET -25.821 0.000 0.000
          CHANNELS 6 Xposition Yposition Zposition Zrotation Xrotation Yrotation
          JOINT RightHand
          {
            OFFSET -25.701 0.000 -0.000
            CHANNELS 6 Xposition Yposition Zposition Zrotation Xrotation Yrotation
            JOINT RightHandThumb1
            {
            OFFSET -4.970 -0.620 3.390
            CHANNELS 6 Xposition Yposition Zposition Zrotation Xrotation Yrotation
              JOINT RightHandThumb2
              {
              OFFSET -2.150 0.000 0.000
              CHANNELS 6 Xposition Yposition Zposition Zrotation Xrotation Yrotation
                JOINT RightHandThumb3
                {
                OFFSET -2.200 0.000 0.000
                CHANNELS 6 Xposition Yposition Zposition Zrotation Xrotation Yrotation
                  JOINT RightHandThumb4
                  {
                  OFFSET -1.700 0.000 0.000
                  CHANNELS 6 Xposition Yposition Zposition Zrotation Xrotation Yrotation
                  }
                }
              }
            }
            JOINT RightHandIndex1
            {
            OFFSET -8.730 0.680 2.070
            CHANNELS 6 Xposition Yposition Zposition Zrotation Xrotation Yrotation
              JOINT RightHandIndex2
              {
              OFFSET -2.670 0.000 0.000
              CHANNELS 6 Xposition Yposition Zposition Zrotation Xrotation Yrotation
                JOINT RightHandIndex3
                {
                OFFSET -2.130 0.000 0.000
                CHANNELS 6 Xposition Yposition Zposition Zrotation Xrotation Yrotation
                  JOINT RightHandIndex4
                  {
                  OFFSET -1.800 0.000 0.000
                  CHANNELS 6 Xposition Yposition Zposition Zrotation Xrotation Yrotation
                  }
                }
              }
            }
            JOINT RightHandMiddle1
            {
            OFFSET -9.220 0.670 0.550
            CHANNELS 6 Xposition Yposition Zposition Zrotation Xrotation Yrotation
              JOINT RightHandMiddle2
              {
              OFFSET -2.660 0.000 0.000
              CHANNELS 6 Xposition Yposition Zposition Zrotation Xrotation Yrotation
                JOINT RightHandMiddle3
                {
                OFFSET -2.280 0.000 0.000
                CHANNELS 6 Xposition Yposition Zposition Zrotation Xrotation Yrotation
                  JOINT RightHandMiddle4
                  {
                  OFFSET -1.500 0.000 0.000
                  CHANNELS 6 Xposition Yposition Zposition Zrotation Xrotation Yrotation
                  }
                }
              }
            }
            JOINT RightHandRing1
            {
            OFFSET -9.250 0.670 -1.130
            CHANNELS 6 Xposition Yposition Zposition Zrotation Xrotation Yrotation
              JOINT RightHandRing2
              {
              OFFSET -2.470 0.000 0.000
              CHANNELS 6 Xposition Yposition Zposition Zrotation Xrotation Yrotation
                JOINT RightHandRing3
                {
                OFFSET -2.210 0.000 0.000
                CHANNELS 6 Xposition Yposition Zposition Zrotation Xrotation Yrotation
                  JOINT RightHandRing4
                  {
                  OFFSET -1.800 0.000 0.000
                  CHANNELS 6 Xposition Yposition Zposition Zrotation Xrotation Yrotation
                  }
                }
              }
            }
            JOINT RightHandPinky1
            {
            OFFSET -9.350 0.660 -2.720
            CHANNELS 6 Xposition Yposition Zposition Zrotation Xrotation Yrotation
              JOINT RightHandPinky2
              {
              OFFSET -1.630 0.000 0.000
              CHANNELS 6 Xposition Yposition Zposition Zrotation Xrotation Yrotation
                JOINT RightHandPinky3
                {
                OFFSET -1.710 0.000 0.000
                CHANNELS 6 Xposition Yposition Zposition Zrotation Xrotation Yrotation
                  JOINT RightHandPinky4
                  {
                  OFFSET -1.800 0.000 0.000
                  CHANNELS 6 Xposition Yposition Zposition Zrotation Xrotation Yrotation
                  }
                }
              }
            }
          }
        }
      }
    }
    JOINT Neck
    {
      OFFSET -0.000 33.961 0.000
      CHANNELS 6 Xposition Yposition Zposition Zrotation Xrotation Yrotation
      JOINT Head
      {
        OFFSET -0.000 23.663 -0.000
        CHANNELS 6 Xposition Yposition Zposition Zrotation Xrotation Yrotation
        End Site
        {
          OFFSET -0.000 0.095 -0.000
        }
      }
    }
  }
}
MOTION
Frames:	4
Frame Time:	0.0333333
21.8452 16.8453 -237.261 -3.02829 -0.143943 2.79933 5.53308 -5.60102 1.56422 -4.48763 -17.2912 -16.0871 1.19209e-05 -46.4991 -4.76837e-05 5.01026 66.709 1.29555e-05 -1.78814e-05 -44.8542 0 -101.45 -76.6001 -107.73 -5.82064 -4.60509 1.1199 -25.023 -2.84757 -3.4068 -3.72529e-07 -40.8809 -4.76837e-05 51.0473 -14.0609 8.36931 1.19209e-05 -49.5465 4.76837e-05 -0.869478 -23.6411 -0.22376 0 6.60972 -6.60975 -1.86328 -5.4933 2.1998 -8.9407e-06 33.9612 0 -20.7903 1.23797e-05 -11.1384 13.2201 -5.96046e-06 2.38419e-05 8.71635 -0.958893 -24.0092 24.9405 5.96046e-06 -2.38419e-05 2.12847e-05 -3.41509e-06 -68.1264 24.6472 0 3.241e-05 -6.81039 0.081747 -15.6414 0.0062 0.0497 0.0339 -45 0 0 0 0.0215 0 0 -45 0 0 0.022 0 0 -45 0 0 0.017 0 0 0 0 -0.0068 0.0873 0.0207 -45 0 0 0 0.0267 0 -80 0 0 0 0.0213 0 -90 0 0 0 0.018 0 0 0 0 -0.0067 0.0922 0.0055 -45 0 0 0 0.0266 0 -80 0 0 0 0.0228 0 -90 0 0 0 0.015 0 0 0 0 -0.0067 0.0925 -0.0113 -45 0 0 0 0.0247 0 -80 0 0 0 0.0221 0 -90 0 0 0 0.018 0 0 0 0 -0.0066 0.0935 -0.0272 -45 0 0 0 0.0163 0 -80 0 0 0 0.0171 0 -90 0 0 0 0.018 0 0 0 0 -8.9407e-06 33.9612 0 28.8246 -2.56132e-06 10.5693 -13.9231 1.78814e-05 9.53674e-05 -55.2126 -33.2592 -20.3209 -26.9551 2.38419e-05 -1.19209e-05 -1.35763e-05 8.53774e-06 63.9473 -26.985 0 -1.19209e-05 -17.9328 -0.0360822 11.682 -0.0062 0.0497 0.0339 45 0 0 0 0.0215 0 0 -45 0 0 0.022 0 0 -45 0 0 0.017 0 0 0 0 0.0068 0.0873 0.0207 45 0 0 0 0.0267 0 80 0 0 0 0.0213 0 90 0 0 0 0.018 0 0 0 0 0.0067 0.0922 0.0055 45 0 0 0 0.0266 0 80 0 0 0 0.0228 0 90 0 0 0 0.015 0 0 0 0 0.0067 0.0925 -0.0113 45 0 0 0 0.0247 0 80 0 0 0 0.0221 0 90 0 0 0 0.018 0 0 0 0 0.0066 0.0935 -0.0272 45 0 0 0 0.0163 0 80 0 0 0 0.0171 0 90 0 0 0 0.018 0 0 0 0 -8.9407e-06 33.9612 0 6.0082 2.01153 -0.211668 2.98023e-06 25.3842 4.76837e-05 1.04854e-05 -9.81839e-06 -4.26887e-07 
22.2536 16.8606 -243.095 -3.31731 1.14992 2.65659 5.56929 -5.58382 1.49956 -6.00045 -20.3543 -17.8422 1.19209e-05 -48.7185 0 6.06139 71.6003 1.8934e-05 -8.9407e-06 -44.9157 0 -116.435 -78.0242 -121.893 -5.79823 -4.7234 1.07498 -26.1658 -5.92557 -4.64645 4.37722e-06 -41.184 2.38419e-05 50.8533 -15.5686 8.59669 0 -50.0029 7.15256e-05 -0.680981 -18.0196 -0.264015 -8.9407e-06 6.5659 -6.5659 -1.72271 -5.17977 1.4399 8.9407e-06 33.9612 -4.76837e-05 -21.5378 1.06722e-05 -10.694 12.902 1.19209e-05 -2.38419e-05 9.79363 -1.23524 -25.3307 25.1861 1.19209e-05 7.15256e-05 3.28591e-07 -1.70755e-06 -68.2149 24.0767 0 1.65775e-05 -6.70597 0.053992 -15.2868 0.0062 0.0497 0.0339 -45 0 0 0 0.0215 0 0 -45 0 0 0.022 0 0 -45 0 0 0.017 0 0 0 0 -0.0068 0.0873 0.0207 -45 0 0 0 0.0267 0 -80 0 0 0 0.0213 0 -90 0 0 0 0.018 0 0 0 0 -0.0067 0.0922 0.0055 -45 0 0 0 0.0266 0 -80 0 0 0 0.0228 0 -90 0 0 0 0.015 0 0 0 0 -0.0067 0.0925 -0.0113 -45 0 0 0 0.0247 0 -80 0 0 0 0.0221 0 -90 0 0 0 0.018 0 0 0 0 -0.0066 0.0935 -0.0272 -45 0 0 0 0.0163 0 -80 0 0 0 0.0171 0 -90 0 0 0 0.018 0 0 0 0 8.9407e-06 33.9612 -4.76837e-05 26.7982 -8.53774e-07 9.91367 -13.9062 2.98023e-05 0 -50.9283 -35.3813 -17.8095 -26.9877 -4.76837e-05 -1.19209e-05 4.32526e-06 1.70755e-06 64.2859 -27.7943 2.38419e-05 0 -20.755 -0.00698935 10.8827 -0.0062 0.0497 0.0339 45 0 0 0 0.0215 0 0 -45 0 0 0.022 0 0 -45 0 0 0.017 0 0 0 0 0.0068 0.0873 0.0207 45 0 0 0 0.0267 0 80 0 0 0 0.0213 0 90 0 0 0 0.018 0 0 0 0 0.0067 0.0922 0.0055 45 0 0 0 0.0266 0 80 0 0 0 0.0228 0 90 0 0 0 0.015 0 0 0 0 0.0067 0.0925 -0.0113 45 0 0 0 0.0247 0 80 0 0 0 0.0221 0 90 0 0 0 0.018 0 0 0 0 0.0066 0.0935 -0.0272 45 0 0 0 0.0163 0 80 0 0 0 0.0171 0 90 0 0 0 0.018 0 0 0 0 8.9407e-06 33.9612 -4.76837e-05 7.24654 1.84488 -0.23454 0 25.1177 -4.76837e-05 1.11124e-05 -1.04587e-05 -8.53774e-07 
22.2536 16.8606 -243.095 -3.31731 1.14992 2.65659 5.56929 -5.58382 1.49956 -6.00045 -20.3543 -17.8422 1.19209e-05 -48.7185 0 6.06139 71.6003 1.8934e-05 -8.9407e-06 -44.9157 0 -116.435 -78.0242 -121.893 -5.79823 -4.7234 1.07498 -26.1658 -5.92557 -4.64645 4.37722e-06 -41.184 2.38419e-05 50.8533 -15.5686 8.59669 0 -50.0029 7.15256e-05 -0.680981 -18.0196 -0.264015 -8.9407e-06 6.5659 -6.5659 -1.72271 -5.17977 1.4399 8.9407e-06 33.9612 -4.76837e-05 -21.5378 1.06722e-05 -10.694 12.902 1.19209e-05 -2.38419e-05 9.79363 -1.23524 -25.3307 25.1861 1.19209e-05 7.15256e-05 3.28591e-07 -1.70755e-06 -68.2149 24.0767 0 1.65775e-05 -6.70597 0.053992 -15.2868 0.0062 0.0497 0.0339 -45 0 0 0 0.0215 0 0 -45 0 0 0.022 0 0 -45 0 0 0.017 0 0 0 0 -0.0068 0.0873 0.0207 -45 0 0 0 0.0267 0 -80 0 0 0 0.0213 0 -90 0 0 0 0.018 0 0 0 0 -0.0067 0.0922 0.0055 -45 0 0 0 0.0266 0 -80 0 0 0 0.0228 0 -90 0 0 0 0.015 0 0 0 0 -0.0067 0.0925 -0.0113 -45 0 0 0 0.0247 0 -80 0 0 0 0.0221 0 -90 0 0 0 0.018 0 0 0 0 -0.0066 0.0935 -0.0272 -45 0 0 0 0.0163 0 -80 0 0 0 0.0171 0 -90 0 0 0 0.018 0 0 0 0 8.9407e-06 33.9612 -4.76837e-05 26.7982 -8.53774e-07 9.91367 -13.9062 2.98023e-05 0 -50.9283 -35.3813 -17.8095 -26.9877 -4.76837e-05 -1.19209e-05 4.32526e-06 1.70755e-06 64.2859 -27.7943 2.38419e-05 0 -20.755 -0.00698935 10.8827 -0.0062 0.0497 0.0339 45 0 0 0 0.0215 0 0 -45 0 0 0.022 0 0 -45 0 0 0.017 0 0 0 0 0.0068 0.0873 0.0207 45 0 0 0 0.0267 0 80 0 0 0 0.0213 0 90 0 0 0 0.018 0 0 0 0 0.0067 0.0922 0.0055 45 0 0 0 0.0266 0 80 0 0 0 0.0228 0 90 0 0 0 0.015 0 0 0 0 0.0067 0.0925 -0.0113 45 0 0 0 0.0247 0 80 0 0 0 0.0221 0 90 0 0 0 0.018 0 0 0 0 0.0066 0.0935 -0.0272 45 0 0 0 0.0163 0 80 0 0 0 0.0171 0 90 0 0 0 0.018 0 0 0 0 8.9407e-06 33.9612 -4.76837e-05 7.24654 1.84488 -0.23454 0 25.1177 -4.76837e-05 1.11124e-05 -1.04587e-05 -8.53774e-07 
22.8548 17.8524 -249.832 -2.7585 3.04217 1.8906 5.80773 -5.92639 1.58942 -8.39361 -23.2798 -19.0498 -8.9407e-06 -51.0307 -2.38419e-05 7.33144 73.0534 2.05036e-05 2.98023e-06 -44.6826 -1.19209e-05 -133.882 -79.2857 -137.837 -5.89732 -4.9496 1.11234 -27.2052 -12.0265 -7.35085 0 -42.3988 0 50.1732 -13.3841 7.25128 0 -50.6605 -2.38419e-05 -0.332725 -14.2152 -0.0856013 0 6.42567 -6.42562 -1.16228 -4.27326 -1.08871 -5.96046e-06 33.9613 2.38419e-05 -23.8763 1.25932e-05 -4.958 13.5518 1.19209e-05 -2.38419e-05 11.4652 -3.85087 -28.6931 24.72 -5.96046e-06 2.38419e-05 1.77805e-06 -3.4151e-06 -66.2495 27.6557 5.96046e-06 -2.68221e-05 -7.1861 0.0647813 -16.8599 0.0062 0.0497 0.0339 -45 0 0 0 0.0215 0 0 -45 0 0 0.022 0 0 -45 0 0 0.017 0 0 0 0 -0.0068 0.0873 0.0207 -45 0 0 0 0.0267 0 -80 0 0 0 0.0213 0 -90 0 0 0 0.018 0 0 0 0 -0.0067 0.0922 0.0055 -45 0 0 0 0.0266 0 -80 0 0 0 0.0228 0 -90 0 0 0 0.015 0 0 0 0 -0.0067 0.0925 -0.0113 -45 0 0 0 0.0247 0 -80 0 0 0 0.0221 0 -90 0 0 0 0.018 0 0 0 0 -0.0066 0.0935 -0.0272 -45 0 0 0 0.0163 0 -80 0 0 0 0.0171 0 -90 0 0 0 0.018 0 0 0 0 -5.96046e-06 33.9613 2.38419e-05 23.1333 -1.33402e-06 4.815 -13.9532 1.78814e-05 -2.38419e-05 -37.7045 -44.4722 -3.48099 -26.7489 -2.38419e-05 -1.19209e-05 2.47303e-06 1.02453e-05 62.8588 -27.9276 2.38419e-05 -5.96046e-06 -23.7841 0.073128 9.33468 -0.0062 0.0497 0.0339 21.1161 0 0 0 0.0215 0 0 -21.1161 0 0 0.022 0 0 -21.1161 0 0 0.017 0 0 0 0 0.0068 0.0873 0.0207 21.1161 0 0 0 0.0267 0 37.5398 0 0 0 0.0213 0 42.2323 0 0 0 0.018 0 0 0 0 0.0067 0.0922 0.0055 21.1161 0 0 0 0.0266 0 37.5398 0 0 0 0.0228 0 42.2323 0 0 0 0.015 0 0 0 0 0.0067 0.0925 -0.0113 21.1161 0 0 0 0.0247 0 37.5398 0 0 0 0.0221 0 42.2323 0 0 0 0.018 0 0 0 0 0.0066 0.0935 -0.0272 21.1161 0 0 0 0.0163 0 37.5398 0 0 0 0.0171 0 42.2323 0 0 0 0.018 0 0 0 0 -5.96046e-06 33.9613 2.38419e-05 5.99613 1.17809 -0.123732 -2.98023e-06 24.3066 -2.38419e-05 9.12955e-06 -1.00102e-05 2.66804e-07 
